<svg width="25" height="24" viewBox="0 0 25 24" fill="none" xmlns="http://www.w3.org/2000/svg">
<path d="M8.16667 5.25C8.03281 5.25 7.91667 5.13386 7.91667 5V2C7.91667 1.86614 8.03281 1.75 8.16667 1.75C8.30053 1.75 8.41667 1.86614 8.41667 2V5C8.41667 5.13386 8.30053 5.25 8.16667 5.25Z" fill="#4B5563" stroke="#4B5563"/>
<path d="M16.1667 5.75C15.7567 5.75 15.4167 5.41 15.4167 5V2C15.4167 1.59 15.7567 1.25 16.1667 1.25C16.5767 1.25 16.9167 1.59 16.9167 2V5C16.9167 5.41 16.5767 5.75 16.1667 5.75Z" fill="#4B5563"/>
<path d="M8.66667 14.5001C8.53667 14.5001 8.40667 14.4701 8.28667 14.4201C8.15667 14.3701 8.05667 14.3001 7.95667 14.2101C7.77667 14.0201 7.66667 13.7701 7.66667 13.5001C7.66667 13.3701 7.69667 13.2401 7.74667 13.1201C7.79667 13.0001 7.86667 12.8901 7.95667 12.7901C8.05667 12.7001 8.15667 12.6301 8.28667 12.5801C8.64667 12.4301 9.09667 12.5101 9.37667 12.7901C9.55667 12.9801 9.66667 13.2401 9.66667 13.5001C9.66667 13.5601 9.65667 13.6301 9.64667 13.7001C9.63667 13.7601 9.61667 13.8201 9.58667 13.8801C9.56667 13.9401 9.53667 14.0001 9.49667 14.0601C9.46667 14.1101 9.41667 14.1601 9.37667 14.2101C9.18667 14.3901 8.92667 14.5001 8.66667 14.5001Z" fill="#4B5563"/>
<path d="M12.1667 14.5C12.0367 14.5 11.9067 14.47 11.7867 14.42C11.6567 14.37 11.5567 14.3 11.4567 14.21C11.2767 14.02 11.1667 13.77 11.1667 13.5C11.1667 13.37 11.1967 13.24 11.2467 13.12C11.2967 13 11.3667 12.89 11.4567 12.79C11.5567 12.7 11.6567 12.63 11.7867 12.58C12.1467 12.42 12.5967 12.51 12.8767 12.79C13.0567 12.98 13.1667 13.24 13.1667 13.5C13.1667 13.56 13.1567 13.63 13.1467 13.7C13.1367 13.76 13.1167 13.82 13.0867 13.88C13.0667 13.94 13.0367 14 12.9967 14.06C12.9667 14.11 12.9167 14.16 12.8767 14.21C12.6867 14.39 12.4267 14.5 12.1667 14.5Z" fill="#4B5563"/>
<path d="M15.6667 14.5C15.5367 14.5 15.4067 14.47 15.2867 14.42C15.1567 14.37 15.0567 14.3 14.9567 14.21C14.9167 14.16 14.8767 14.11 14.8367 14.06C14.7967 14 14.7667 13.94 14.7467 13.88C14.7167 13.82 14.6967 13.76 14.6867 13.7C14.6767 13.63 14.6667 13.56 14.6667 13.5C14.6667 13.24 14.7767 12.98 14.9567 12.79C15.0567 12.7 15.1567 12.63 15.2867 12.58C15.6567 12.42 16.0967 12.51 16.3767 12.79C16.5567 12.98 16.6667 13.24 16.6667 13.5C16.6667 13.56 16.6567 13.63 16.6467 13.7C16.6367 13.76 16.6167 13.82 16.5867 13.88C16.5667 13.94 16.5367 14 16.4967 14.06C16.4667 14.11 16.4167 14.16 16.3767 14.21C16.1867 14.39 15.9267 14.5 15.6667 14.5Z" fill="#4B5563"/>
<path d="M8.66667 17.9999C8.53667 17.9999 8.40667 17.97 8.28667 17.92C8.16667 17.87 8.05667 17.7999 7.95667 17.7099C7.77667 17.5199 7.66667 17.2599 7.66667 16.9999C7.66667 16.8699 7.69667 16.7399 7.74667 16.6199C7.79667 16.4899 7.86667 16.38 7.95667 16.29C8.32667 15.92 9.00667 15.92 9.37667 16.29C9.55667 16.48 9.66667 16.7399 9.66667 16.9999C9.66667 17.2599 9.55667 17.5199 9.37667 17.7099C9.18667 17.8899 8.92667 17.9999 8.66667 17.9999Z" fill="#4B5563"/>
<path d="M12.1667 17.9999C11.9067 17.9999 11.6467 17.8899 11.4567 17.7099C11.2767 17.5199 11.1667 17.2599 11.1667 16.9999C11.1667 16.8699 11.1967 16.7399 11.2467 16.6199C11.2967 16.4899 11.3667 16.38 11.4567 16.29C11.8267 15.92 12.5067 15.92 12.8767 16.29C12.9667 16.38 13.0367 16.4899 13.0867 16.6199C13.1367 16.7399 13.1667 16.8699 13.1667 16.9999C13.1667 17.2599 13.0567 17.5199 12.8767 17.7099C12.6867 17.8899 12.4267 17.9999 12.1667 17.9999Z" fill="#4B5563"/>
<path d="M15.6667 18C15.4067 18 15.1467 17.89 14.9567 17.71C14.8667 17.62 14.7967 17.51 14.7467 17.38C14.6967 17.26 14.6667 17.13 14.6667 17C14.6667 16.87 14.6967 16.74 14.7467 16.62C14.7967 16.49 14.8667 16.38 14.9567 16.29C15.1867 16.06 15.5367 15.95 15.8567 16.02C15.9267 16.03 15.9867 16.05 16.0467 16.08C16.1067 16.1 16.1667 16.13 16.2267 16.17C16.2767 16.2 16.3267 16.25 16.3767 16.29C16.5567 16.48 16.6667 16.74 16.6667 17C16.6667 17.26 16.5567 17.52 16.3767 17.71C16.1867 17.89 15.9267 18 15.6667 18Z" fill="#4B5563"/>
<path d="M20.6667 9.83997H3.66667C3.25667 9.83997 2.91667 9.49997 2.91667 9.08997C2.91667 8.67997 3.25667 8.33997 3.66667 8.33997H20.6667C21.0767 8.33997 21.4167 8.67997 21.4167 9.08997C21.4167 9.49997 21.0767 9.83997 20.6667 9.83997Z" fill="#4B5563"/>
<path d="M16.1667 22.75H8.16667C4.51667 22.75 2.41667 20.65 2.41667 17V8.5C2.41667 4.85 4.51667 2.75 8.16667 2.75H16.1667C19.8167 2.75 21.9167 4.85 21.9167 8.5V17C21.9167 20.65 19.8167 22.75 16.1667 22.75ZM8.16667 4.25C5.30667 4.25 3.91667 5.64 3.91667 8.5V17C3.91667 19.86 5.30667 21.25 8.16667 21.25H16.1667C19.0267 21.25 20.4167 19.86 20.4167 17V8.5C20.4167 5.64 19.0267 4.25 16.1667 4.25H8.16667Z" fill="#4B5563"/>
</svg>
