<svg width="25" height="24" viewBox="0 0 25 24" fill="none" xmlns="http://www.w3.org/2000/svg">
<path d="M18.1667 10.25C18.0329 10.25 17.9167 10.1339 17.9167 10V8C17.9167 6.40247 17.6971 4.93455 16.8105 3.8732C15.9067 2.79134 14.4155 2.25 12.1667 2.25C9.91797 2.25 8.42678 2.79134 7.52302 3.8732C6.63639 4.93455 6.41675 6.40247 6.41675 8V10C6.41675 10.1339 6.30061 10.25 6.16675 10.25C6.03289 10.25 5.91675 10.1339 5.91675 10V8C5.91675 6.57122 6.09403 5.01738 6.93207 3.82501C7.7446 2.66893 9.2554 1.75 12.1667 1.75C15.0781 1.75 16.5889 2.66893 17.4014 3.82501C18.2395 5.01738 18.4167 6.57122 18.4167 8V10C18.4167 10.1339 18.3006 10.25 18.1667 10.25Z" fill="#E54B41" stroke="#E54B41"/>
<path d="M17.1667 22.75H7.16675C2.75675 22.75 1.41675 21.41 1.41675 17V15C1.41675 10.59 2.75675 9.25 7.16675 9.25H17.1667C21.5767 9.25 22.9167 10.59 22.9167 15V17C22.9167 21.41 21.5767 22.75 17.1667 22.75ZM7.16675 10.75C3.58675 10.75 2.91675 11.43 2.91675 15V17C2.91675 20.57 3.58675 21.25 7.16675 21.25H17.1667C20.7467 21.25 21.4167 20.57 21.4167 17V15C21.4167 11.43 20.7467 10.75 17.1667 10.75H7.16675Z" fill="#E54B41"/>
<path d="M8.16675 17C8.03675 17 7.90674 16.97 7.78674 16.92C7.65674 16.87 7.55676 16.8 7.45676 16.71C7.27676 16.52 7.16675 16.27 7.16675 16C7.16675 15.87 7.19673 15.74 7.24673 15.62C7.29673 15.49 7.36676 15.39 7.45676 15.29C7.55676 15.2 7.65674 15.13 7.78674 15.08C8.14674 14.92 8.59674 15.01 8.87674 15.29C8.96674 15.39 9.03676 15.5 9.08676 15.62C9.13676 15.74 9.16675 15.87 9.16675 16C9.16675 16.26 9.05674 16.52 8.87674 16.71C8.68674 16.89 8.42675 17 8.16675 17Z" fill="#E54B41"/>
<path d="M12.1667 17C11.9067 17 11.6468 16.89 11.4568 16.71C11.2768 16.52 11.1667 16.27 11.1667 16C11.1667 15.87 11.1867 15.74 11.2467 15.62C11.2967 15.5 11.3668 15.39 11.4568 15.29C11.6868 15.06 12.0368 14.95 12.3568 15.02C12.4268 15.03 12.4868 15.05 12.5468 15.08C12.6068 15.1 12.6667 15.13 12.7267 15.17C12.7767 15.2 12.8267 15.25 12.8767 15.29C12.9667 15.39 13.0368 15.5 13.0868 15.62C13.1368 15.74 13.1667 15.87 13.1667 16C13.1667 16.27 13.0567 16.52 12.8767 16.71C12.8267 16.75 12.7767 16.79 12.7267 16.83C12.6667 16.87 12.6068 16.9 12.5468 16.92C12.4868 16.95 12.4268 16.97 12.3568 16.98C12.2968 16.99 12.2267 17 12.1667 17Z" fill="#E54B41"/>
<path d="M16.1667 17C15.8967 17 15.6468 16.89 15.4568 16.71C15.3668 16.61 15.2967 16.5 15.2467 16.38C15.1967 16.26 15.1667 16.13 15.1667 16C15.1667 15.74 15.2768 15.48 15.4568 15.29C15.5068 15.25 15.5568 15.21 15.6068 15.17C15.6668 15.13 15.7267 15.1 15.7867 15.08C15.8467 15.05 15.9067 15.03 15.9667 15.02C16.2967 14.95 16.6367 15.06 16.8767 15.29C17.0567 15.48 17.1667 15.73 17.1667 16C17.1667 16.13 17.1368 16.26 17.0868 16.38C17.0368 16.51 16.9667 16.61 16.8767 16.71C16.6867 16.89 16.4267 17 16.1667 17Z" fill="#E54B41"/>
</svg>
