<svg width="25" height="24" viewBox="0 0 25 24" fill="none" xmlns="http://www.w3.org/2000/svg">
<path d="M18.1667 10.25C18.0328 10.25 17.9167 10.1339 17.9167 10V8C17.9167 6.40247 17.697 4.93455 16.8104 3.8732C15.9066 2.79134 14.4155 2.25 12.1667 2.25C9.9179 2.25 8.42671 2.79134 7.52295 3.8732C6.63632 4.93455 6.41668 6.40247 6.41668 8V10C6.41668 10.1339 6.30054 10.25 6.16668 10.25C6.03282 10.25 5.91668 10.1339 5.91668 10V8C5.91668 6.57122 6.09396 5.01738 6.932 3.82501C7.74453 2.66893 9.25533 1.75 12.1667 1.75C15.078 1.75 16.5888 2.66893 17.4014 3.82501C18.2394 5.01738 18.4167 6.57122 18.4167 8V10C18.4167 10.1339 18.3005 10.25 18.1667 10.25Z" fill="#4B5563" stroke="#4B5563"/>
<path d="M17.1667 22.75H7.16668C2.75668 22.75 1.41668 21.41 1.41668 17V15C1.41668 10.59 2.75668 9.25 7.16668 9.25H17.1667C21.5767 9.25 22.9167 10.59 22.9167 15V17C22.9167 21.41 21.5767 22.75 17.1667 22.75ZM7.16668 10.75C3.58668 10.75 2.91668 11.43 2.91668 15V17C2.91668 20.57 3.58668 21.25 7.16668 21.25H17.1667C20.7467 21.25 21.4167 20.57 21.4167 17V15C21.4167 11.43 20.7467 10.75 17.1667 10.75H7.16668Z" fill="#4B5563"/>
<path d="M8.16668 17C8.03668 17 7.90667 16.97 7.78667 16.92C7.65667 16.87 7.55669 16.8 7.45669 16.71C7.27669 16.52 7.16668 16.27 7.16668 16C7.16668 15.87 7.19667 15.74 7.24667 15.62C7.29667 15.49 7.36669 15.39 7.45669 15.29C7.55669 15.2 7.65667 15.13 7.78667 15.08C8.14667 14.92 8.59667 15.01 8.87667 15.29C8.96667 15.39 9.03669 15.5 9.08669 15.62C9.13669 15.74 9.16668 15.87 9.16668 16C9.16668 16.26 9.05667 16.52 8.87667 16.71C8.68667 16.89 8.42668 17 8.16668 17Z" fill="#4B5563"/>
<path d="M12.1667 17C11.9067 17 11.6467 16.89 11.4567 16.71C11.2767 16.52 11.1667 16.27 11.1667 16C11.1667 15.87 11.1867 15.74 11.2467 15.62C11.2967 15.5 11.3667 15.39 11.4567 15.29C11.6867 15.06 12.0367 14.95 12.3567 15.02C12.4267 15.03 12.4867 15.05 12.5467 15.08C12.6067 15.1 12.6667 15.13 12.7267 15.17C12.7767 15.2 12.8267 15.25 12.8767 15.29C12.9667 15.39 13.0367 15.5 13.0867 15.62C13.1367 15.74 13.1667 15.87 13.1667 16C13.1667 16.27 13.0567 16.52 12.8767 16.71C12.8267 16.75 12.7767 16.79 12.7267 16.83C12.6667 16.87 12.6067 16.9 12.5467 16.92C12.4867 16.95 12.4267 16.97 12.3567 16.98C12.2967 16.99 12.2267 17 12.1667 17Z" fill="#4B5563"/>
<path d="M16.1667 17C15.8967 17 15.6467 16.89 15.4567 16.71C15.3667 16.61 15.2967 16.5 15.2467 16.38C15.1967 16.26 15.1667 16.13 15.1667 16C15.1667 15.74 15.2767 15.48 15.4567 15.29C15.5067 15.25 15.5567 15.21 15.6067 15.17C15.6667 15.13 15.7267 15.1 15.7867 15.08C15.8467 15.05 15.9067 15.03 15.9667 15.02C16.2967 14.95 16.6367 15.06 16.8767 15.29C17.0567 15.48 17.1667 15.73 17.1667 16C17.1667 16.13 17.1367 16.26 17.0867 16.38C17.0367 16.51 16.9667 16.61 16.8767 16.71C16.6867 16.89 16.4267 17 16.1667 17Z" fill="#4B5563"/>
</svg>
