<svg width="25" height="24" viewBox="0 0 25 24" fill="none" xmlns="http://www.w3.org/2000/svg">
<path d="M15.5397 13.6465L15.1862 14L15.5397 14.3536L20.7997 19.6136L21.2363 20.0501L21.5726 19.5323C22.2796 18.4439 22.5833 16.9495 22.5833 15V9.00001C22.5833 8.58271 22.5731 8.18758 22.5415 7.80849L22.452 6.73416L21.6897 7.49646L15.5397 13.6465ZM21.1662 20.6255C21.1178 20.6161 21.0727 20.5923 21.0368 20.5565L14.6568 14.1764C14.5621 14.0817 14.5621 13.9183 14.6568 13.8236L22.3868 6.09356C22.4412 6.03915 22.5396 6.00831 22.6347 6.03066C22.7257 6.0618 22.7876 6.1344 22.8058 6.21127C22.9862 7.01927 23.0833 7.93138 23.0833 9.00001V15C23.0833 17.707 22.516 19.4193 21.3911 20.5551C21.3879 20.5572 21.3729 20.5667 21.3332 20.5801C21.3055 20.5894 21.2728 20.5985 21.2288 20.6097C21.2192 20.6122 21.2081 20.6149 21.1962 20.618C21.1867 20.6203 21.1766 20.6229 21.1662 20.6255Z" fill="#4B5563" stroke="#4B5563"/>
<path d="M7.10332 22.48C7.04332 22.48 6.99333 22.47 6.93333 22.46C3.62333 21.7 2.08333 19.33 2.08333 15V9C2.08333 3.57 4.40333 1.25 9.83333 1.25H15.8333C20.1633 1.25 22.5333 2.79001 23.2933 6.10001C23.3533 6.35001 23.2733 6.62 23.0933 6.8L7.63332 22.26C7.49332 22.4 7.30332 22.48 7.10332 22.48ZM9.83333 2.75C5.22333 2.75 3.58333 4.39 3.58333 9V15C3.58333 18.47 4.54334 20.21 6.87334 20.9L21.7233 6.05C21.0433 3.72 19.2933 2.75999 15.8233 2.75999H9.83333V2.75Z" fill="#4B5563"/>
<path d="M15.8332 22.7499H9.83321C8.73321 22.7499 7.79322 22.6599 6.93322 22.4599C6.66322 22.3999 6.4532 22.1999 6.3832 21.9399C6.3032 21.6799 6.3832 21.3999 6.5732 21.1999L14.3032 13.4699C14.5932 13.1799 15.0732 13.1799 15.3632 13.4699L21.7432 19.8499C21.8832 19.9899 21.9632 20.1799 21.9632 20.3799C21.9632 20.5799 21.8832 20.7699 21.7432 20.9099C20.4732 22.1699 18.6032 22.7499 15.8332 22.7499ZM8.68322 21.2099C9.04322 21.2399 9.42321 21.2499 9.83321 21.2499H15.8332C17.7532 21.2499 19.1232 20.9499 20.0932 20.3199L14.8332 15.0599L8.68322 21.2099Z" fill="#4B5563"/>
<path d="M9.95327 13.31C9.32327 13.31 8.69326 13.08 8.19326 12.61C6.60326 11.1 5.96328 9.44005 6.34328 7.82005C6.72328 6.16005 8.17327 5.04004 9.95327 5.04004C11.7333 5.04004 13.1833 6.16005 13.5633 7.82005C13.9333 9.45005 13.2933 11.1 11.7033 12.61C11.2133 13.07 10.5833 13.31 9.95327 13.31ZM7.80328 8.15004C7.48328 9.51004 8.40327 10.7301 9.23327 11.5201C9.64327 11.9101 10.2733 11.9101 10.6733 11.5201C11.4933 10.7401 12.4133 9.52004 12.1033 8.15004C11.8333 6.96004 10.7733 6.53004 9.95327 6.53004C9.13327 6.53004 8.08328 6.96004 7.80328 8.15004Z" fill="#4B5563"/>
<path d="M9.98323 9.48999C9.43323 9.48999 8.98323 9.03999 8.98323 8.48999C8.98323 7.93999 9.42323 7.48999 9.98323 7.48999H9.99324C10.5432 7.48999 10.9932 7.93999 10.9932 8.48999C10.9932 9.03999 10.5332 9.48999 9.98323 9.48999Z" fill="#4B5563"/>
</svg>
