<svg width="25" height="24" viewBox="0 0 25 24" fill="none" xmlns="http://www.w3.org/2000/svg">
<path d="M15.5 22.25H9.5C7.31222 22.25 6.05896 21.9094 5.3248 21.1752C4.59065 20.441 4.25 19.1878 4.25 17V7C4.25 4.81222 4.59065 3.55896 5.3248 2.8248C6.05896 2.09065 7.31222 1.75 9.5 1.75H15.5C17.6878 1.75 18.941 2.09065 19.6752 2.8248C20.4094 3.55896 20.75 4.81222 20.75 7V17C20.75 19.1878 20.4094 20.441 19.6752 21.1752C18.941 21.9094 17.6878 22.25 15.5 22.25ZM9.5 2.25C8.59618 2.25 7.84091 2.29224 7.22235 2.42281C6.59822 2.55456 6.07727 2.78357 5.67859 3.18306C5.27996 3.58249 5.05213 4.10372 4.92129 4.72714C4.7916 5.34503 4.75 6.09888 4.75 7V17C4.75 17.9011 4.7916 18.655 4.92129 19.2729C5.05213 19.8963 5.27996 20.4175 5.67859 20.8169C6.07727 21.2164 6.59822 21.4454 7.22235 21.5772C7.84091 21.7078 8.59618 21.75 9.5 21.75H15.5C16.4038 21.75 17.1591 21.7078 17.7776 21.5772C18.4018 21.4454 18.9227 21.2164 19.3214 20.8169C19.72 20.4175 19.9479 19.8963 20.0787 19.2729C20.2084 18.655 20.25 17.9011 20.25 17V7C20.25 6.09888 20.2084 5.34503 20.0787 4.72714C19.9479 4.10372 19.72 3.58249 19.3214 3.18306C18.9227 2.78357 18.4018 2.55456 17.7776 2.42281C17.1591 2.29224 16.4038 2.25 15.5 2.25H9.5Z" fill="#4B5563" stroke="#4B5563"/>
<path d="M14.5 6.25H10.5C10.09 6.25 9.75 5.91 9.75 5.5C9.75 5.09 10.09 4.75 10.5 4.75H14.5C14.91 4.75 15.25 5.09 15.25 5.5C15.25 5.91 14.91 6.25 14.5 6.25Z" fill="#4B5563"/>
<path d="M12.5 19.86C11.23 19.86 10.2 18.83 10.2 17.56C10.2 16.29 11.23 15.26 12.5 15.26C13.77 15.26 14.8 16.29 14.8 17.56C14.8 18.83 13.77 19.86 12.5 19.86ZM12.5 16.75C12.06 16.75 11.7 17.11 11.7 17.55C11.7 17.99 12.06 18.35 12.5 18.35C12.94 18.35 13.3 17.99 13.3 17.55C13.3 17.11 12.94 16.75 12.5 16.75Z" fill="#4B5563"/>
</svg>
