<svg width="25" height="24" viewBox="0 0 25 24" fill="none" xmlns="http://www.w3.org/2000/svg">
<path d="M17.5 20.75H7.5C5.76991 20.75 4.47362 20.254 3.6098 19.3902C2.74598 18.5264 2.25 17.2301 2.25 15.5V8.5C2.25 6.76991 2.74598 5.47362 3.6098 4.6098C4.47362 3.74598 5.76991 3.25 7.5 3.25H17.5C19.2301 3.25 20.5264 3.74598 21.3902 4.6098C22.254 5.47362 22.75 6.76991 22.75 8.5V15.5C22.75 17.2301 22.254 18.5264 21.3902 19.3902C20.5264 20.254 19.2301 20.75 17.5 20.75ZM7.5 3.75C5.99651 3.75 4.78256 4.11533 3.94895 4.94895C3.11533 5.78256 2.75 6.99651 2.75 8.5V15.5C2.75 17.0035 3.11533 18.2174 3.94895 19.0511C4.78256 19.8847 5.99651 20.25 7.5 20.25H17.5C19.0035 20.25 20.2174 19.8847 21.0511 19.0511C21.8847 18.2174 22.25 17.0035 22.25 15.5V8.5C22.25 6.99651 21.8847 5.78256 21.0511 4.94895C20.2174 4.11533 19.0035 3.75 17.5 3.75H7.5Z" fill="#4B5563" stroke="#4B5563"/>
<path d="M12.4998 12.87C11.6598 12.87 10.8098 12.61 10.1598 12.08L7.02978 9.57997C6.70978 9.31997 6.64978 8.84997 6.90978 8.52997C7.16978 8.20997 7.63978 8.14997 7.95978 8.40997L11.0898 10.91C11.8498 11.52 13.1398 11.52 13.8998 10.91L17.0298 8.40997C17.3498 8.14997 17.8298 8.19997 18.0798 8.52997C18.3398 8.84997 18.2898 9.32997 17.9598 9.57997L14.8298 12.08C14.1898 12.61 13.3398 12.87 12.4998 12.87Z" fill="#4B5563"/>
</svg>
