<svg width="25" height="24" viewBox="0 0 25 24" fill="none" xmlns="http://www.w3.org/2000/svg">
<path d="M11.2469 21.5965L11.2448 21.5944L9.53687 19.9065C9.53651 19.9061 9.53615 19.9057 9.53579 19.9054C9.01837 19.3886 8.31007 19.11 7.59335 19.11H6.83334C5.03599 19.11 3.58334 17.6604 3.58334 15.89V4.97998C3.58334 3.20961 5.03599 1.76001 6.83334 1.76001H18.8333C20.6307 1.76001 22.0833 3.20961 22.0833 4.97998V15.89C22.0833 17.6604 20.6307 19.11 18.8333 19.11H18.0733C17.351 19.11 16.6462 19.4023 16.1341 19.9022L16.1319 19.9044L14.4219 21.5944L14.4198 21.5965C13.9881 22.0282 13.4073 22.25 12.8333 22.25C12.2594 22.25 11.6786 22.0282 11.2469 21.5965ZM11.6019 21.2356L11.6034 21.2372C12.2878 21.9076 13.3889 21.9076 14.0733 21.2372L14.0748 21.2356L15.7843 19.5461C15.7843 19.5461 15.7844 19.546 15.7844 19.546C16.3921 18.9471 17.2264 18.6 18.0833 18.6H18.8333C20.3436 18.6 21.5833 17.382 21.5833 15.88V4.96997C21.5833 3.45656 20.3422 2.25 18.8333 2.25H6.83334C5.32305 2.25 4.08334 3.46802 4.08334 4.96997V15.88C4.08334 17.3934 5.32452 18.6 6.83334 18.6H7.59335C8.45029 18.6 9.28465 18.9471 9.89232 19.5461L11.6019 21.2356Z" fill="#E54B41" stroke="#E54B41"/>
<path d="M12.8333 10.7501C11.1333 10.7501 9.75327 9.37004 9.75327 7.67004C9.75327 5.97004 11.1333 4.59009 12.8333 4.59009C14.5333 4.59009 15.9133 5.97004 15.9133 7.67004C15.9133 9.37004 14.5333 10.7501 12.8333 10.7501ZM12.8333 6.09009C11.9633 6.09009 11.2533 6.80004 11.2533 7.67004C11.2533 8.54004 11.9633 9.25006 12.8333 9.25006C13.7033 9.25006 14.4133 8.54004 14.4133 7.67004C14.4133 6.80004 13.7033 6.09009 12.8333 6.09009Z" fill="#E54B41"/>
<path d="M16.8333 16.4101C16.4233 16.4101 16.0833 16.0701 16.0833 15.6601C16.0833 14.2801 14.6233 13.1501 12.8333 13.1501C11.0433 13.1501 9.58334 14.2801 9.58334 15.6601C9.58334 16.0701 9.24334 16.4101 8.83334 16.4101C8.42334 16.4101 8.08334 16.0701 8.08334 15.6601C8.08334 13.4501 10.2133 11.6501 12.8333 11.6501C15.4533 11.6501 17.5833 13.4501 17.5833 15.6601C17.5833 16.0701 17.2433 16.4101 16.8333 16.4101Z" fill="#E54B41"/>
</svg>
